<?xml version="1.0" encoding="utf-8"?>
<!-- Generator: Adobe Illustrator 15.0.2, SVG Export Plug-In . SVG Version: 6.00 Build 0)  -->
<!DOCTYPE svg PUBLIC "-//W3C//DTD SVG 1.1//EN" "http://www.w3.org/Graphics/SVG/1.1/DTD/svg11.dtd">
<svg version="1.1" id="Layer_1" xmlns="http://www.w3.org/2000/svg" xmlns:xlink="http://www.w3.org/1999/xlink" x="0px" y="0px"
	 width="363.751px" height="278.234px" viewBox="0 0 363.751 278.234" enable-background="new 0 0 363.751 278.234"
	 xml:space="preserve">
<path d="M113.324,166.217l-0.839,5.717l0.839,8.244l2.15,7.881l2.668,8.855l4.845,14.803l7.842,22.555l3.027,8.149l4.771,10.198
	l4.683,5.256l6.6,0.489l5.69-2.472l3.154-5.345v-5.845l-2.329-9.864l-3.875-11.733l-6.075-16.092l-3.2-9.314l-0.259-5.134
	l3.041-1.728l5.804-1.312l10.643-1.875l9.261-1.021l8.903,0.264l10.484,1.388l10.169,1.948l3.435,0.955l1.491,0.713l0.745,2.473
	l-1.055,5.257l-2.541,7.084l-2.254,5.582l-3.18,8.634l-2.758,8.043l-2.476,7.854l-1.663,7.365c0,0-0.339,4.032-0.229,5.37
	c0.314,3.836,3.828,6.711,3.828,6.711l5.161,2.096l6.246-0.334l5.149-5.577l5.402-11.909l5.334-15.095l6.194-17.926l5.606-17.661
	l3.219-12.825v-8.176l-0.721-3.367l-3.785-1.373l-2.064-1.833l-1.822-3.198l-2.767-1.003l-6.365,0.321l-1.858,1.05l-4.484,0.943
	l-5.183,0.626l-5.3,3.463l-9.75,1.727H177.47h-22.226l-9.904-2.246l-3.934-2.312l-9.849-2.474l-3.046-1.099l-5.209,0.003
	l-3.78,2.076l-2.856,4.652"/>
<g>
	<path stroke="#F1F2F2" stroke-width="0.75" d="M202.665,44.717c0,14.82-12.009,26.836-26.832,26.836
		c-14.819,0-26.837-12.016-26.837-26.836c0-14.82,12.018-26.835,26.837-26.835C190.656,17.881,202.665,29.897,202.665,44.717z"/>
	<path stroke="#F1F2F2" stroke-width="0.75" stroke-miterlimit="10" d="M217.596,158.944c0.057,0.194,0.201,0.175,0.403,0.054"/>
	<line stroke="#F1F2F2" stroke-width="0.75" stroke-miterlimit="10" x1="141.831" y1="161.146" x2="131.558" y2="159.186"/>
	<path stroke="#F1F2F2" stroke-width="0.75" d="M207.314,161.146l10.273-1.96l0.411-0.188c0.415-0.242,1.076-0.901,1.728-0.982
		c2.621-0.329,6.509-0.229,8.386,0.758c2.25,1.178,4.2,6.807,6.493,6.685c3.145-0.167,3.676-5.931,4.191-12.224
		c0.323-3.945,0.4-19.391,0-25.749c-0.732-11.648-5.317-22.89-6.811-27.508c-2.824-8.717-9.544-19.508-16.462-22.543
		c-7.729-3.392-39.694-2.348-39.694-2.348l-2.515-0.001c0,0-31.965-1.044-39.694,2.348c-6.919,3.035-13.642,13.826-16.462,22.543
		c-1.494,4.618-6.078,15.859-6.811,27.508c-0.402,6.357-0.325,21.801,0,25.75c0.516,6.29,1.047,12.055,4.192,12.221
		c2.288,0.123,4.239-5.504,6.49-6.682c1.877-0.988,5.764-1.087,8.388-0.758c1.042,0.127,2.106,1.804,2.149,0.82
		c0.237-5.314-0.483-17.758-0.307-24.446c0.079-3.016,0.507-8.721,0.943-11.489c0.635-4.04,4.068-13.409,5.189-16.45
		c0.781-2.133,4.481-10.674,4.437-8.307c-0.137,6.689-0.137,50.378,0,63.001c0.035,3.298,8.963,3.765,12.123,4.31
		c3.101,0.535,19.361,0.762,19.361,0.762h2.515c0,0,16.259-0.224,19.358-0.759C198.351,164.912,207.279,164.443,207.314,161.146
		c0.135-12.623,0.135-56.311,0-63c-0.048-2.367,3.652,6.174,4.438,8.307c1.116,3.041,4.552,12.41,5.188,16.45
		c0.436,2.768,0.865,8.473,0.943,11.489c0.175,6.689-0.545,19.07-0.31,24.382c0.003,0.068,0.01,0.124,0.022,0.171"/>
	<path fill="none" stroke="#F1F2F2" stroke-width="0.75" stroke-miterlimit="10" d="M113.651,164.818c0,0-1.032,4.246-1.126,5.693
		c-0.143,2.162,0.108,6.53,0.561,8.648c0.731,3.395,3.999,14.467,3.999,14.467s6.512,20.399,9.12,27.359
		c3.46,9.229,9.533,30.37,15.725,36.009c2.417,2.202,7.366,1.828,10.063,0.821c4.717-1.764,6.024-4.175,6.762-7.269
		c0.697-2.945-0.26-8.324-1.101-11.478c-1.838-6.883-6.934-21.556-9.592-28.162c-1.818-4.521-7.331-17.033-4.561-19.012
		c2.201-1.572,11.077-2.776,15.096-3.616c4.629-0.968,16.277-1.929,16.277-1.929s11.648,0.961,16.277,1.929
		c4.02,0.84,12.895,2.044,15.095,3.616c2.769,1.979-2.741,14.491-4.56,19.012c-2.659,6.606-7.756,21.279-9.593,28.162
		c-0.84,3.153-1.8,8.532-1.1,11.478c0.734,3.094,2.044,5.505,6.762,7.269c2.694,1.007,7.646,1.381,10.062-0.821
		c6.191-5.639,12.266-26.78,15.725-36.009c2.609-6.96,9.12-27.359,9.12-27.359s3.268-11.072,3.997-14.467
		c0.454-2.118,0.705-6.486,0.563-8.648c-0.096-1.447-1.125-5.693-1.125-5.693"/>
</g>
<g>
	<path fill-rule="evenodd" clip-rule="evenodd" fill="none" stroke="#000000" stroke-width="4" stroke-linecap="round" d="
		M163.622,170.463c-1.906-2.959-2.801-4.695-3.161-7.066c-1.615-2.361-5.123,0.258-6.858-1.784
		c-3.258-7.103,3.511-13.727,1.126-20.495"/>
	<path fill-rule="evenodd" clip-rule="evenodd" fill="none" stroke="#000000" stroke-linecap="round" d="M155.855,143.641
		l-1.127-2.523L155.855,143.641z"/>
	<path fill-rule="evenodd" clip-rule="evenodd" fill="none" stroke="#000000" stroke-width="4.4103" stroke-linecap="round" d="
		M154.729,141.117c-0.369-0.224-0.742-0.455-1.108-0.684c-24.07-2.756-22.675,83.627-39.09,35.336
		c-13.934,10.789-20.881,30.66-37.716,38.836c-2.359,0.703-4.796-0.982-5.841-3.036c-0.606-21.304,6.546-42.441,16.512-60.954"/>
	<path fill-rule="evenodd" clip-rule="evenodd" fill="none" stroke="#000000" stroke-linecap="round" d="M154.729,141.117"/>
	<path fill-rule="evenodd" clip-rule="evenodd" fill="none" stroke="#000000" stroke-linecap="round" d="M162.418,140.699"/>
	<path fill-rule="evenodd" clip-rule="evenodd" fill="none" stroke="#000000" stroke-width="4.2394" stroke-linecap="round" d="
		M166.799,133.292c-6.405-20.397-1.811-42.645-6.538-63.728"/>
	<path fill-rule="evenodd" clip-rule="evenodd" fill="none" stroke="#000000" stroke-width="8.5294" stroke-linecap="round" d="
		M206.695,125.806"/>
	<path fill-rule="evenodd" clip-rule="evenodd" fill="none" stroke="#000000" stroke-width="3.7815" stroke-linecap="round" d="
		M206.695,125.806c-6.617-14.101-8.141-41.903-9.73-64.981c-0.593-8.565-1.018-17.471-0.38-23.444"/>
	<path fill-rule="evenodd" clip-rule="evenodd" fill="none" stroke="#000000" stroke-width="4.4508" stroke-linecap="round" d="
		M225.891,103.809c3.741-33.186,12.341-68.583,1.105-100.634c-14.039,7.13-11.715,27.903-12.95,41.708"/>
	<path fill-rule="evenodd" clip-rule="evenodd" fill="none" stroke="#000000" stroke-width="7.2467" stroke-linecap="round" d="
		M225.891,103.809c0.717,11.395-0.05,22.942,0.258,34.423"/>
	<path fill-rule="evenodd" clip-rule="evenodd" fill="none" stroke="#000000" stroke-width="4.1754" stroke-linecap="round" d="
		M226.148,138.232c3.462,3.113,6.14,7.256,10.48,9.253c1.748-0.091,4.003,0.209,4.912,0.12c13.621-9.5,19.574-27.699,23.796-42.971"
		/>
	<path fill-rule="evenodd" clip-rule="evenodd" fill="none" stroke="#000000" stroke-width="5.1975" stroke-linecap="round" d="
		M265.337,104.634c-2.114-0.658-4.603-0.798-6.178-2.536c-7.999-12.439,12.131-50.074,21.136-25.208"/>
	<path fill-rule="evenodd" clip-rule="evenodd" fill="none" stroke="#000000" stroke-width="4.1286" stroke-linecap="round" d="
		M280.295,76.89c5.271-1.511,6.684-8.945,12.375-9.393c1.679,1.958,2.277,4.093,2.39,4.958c-0.985,3.993-0.341,8.319,1.839,11.75
		c7.064-4.907,10.344-11.049,20.122-10.914c16.464-11.867,28.289-29.115,44.62-41.154"/>
	<path fill-rule="evenodd" clip-rule="evenodd" fill="none" stroke="#000000" stroke-width="6.5192" stroke-linecap="round" d="
		M226.148,138.232c-1.013,1.189-1.937,2.145-2.862,3.094"/>
	<path fill-rule="evenodd" clip-rule="evenodd" fill="none" stroke="#000000" stroke-width="5.3645" stroke-linecap="round" d="
		M223.286,141.326c-0.742,1.968-2.397,5.188-4.942,4.274c-1.64-1.481-2.122-3.774-1.178-5.776"/>
	
		<line fill-rule="evenodd" clip-rule="evenodd" fill="none" stroke="#000000" stroke-linecap="round" x1="164.615" y1="168.254" x2="164.615" y2="168.254"/>
	<path fill-rule="evenodd" clip-rule="evenodd" fill="none" stroke="#000000" stroke-width="5.355" stroke-linecap="round" d="
		M265.337,104.634c6.493-8.363,11.053-17.896,14.958-27.744"/>
	<path fill-rule="evenodd" clip-rule="evenodd" fill="none" stroke="#000000" stroke-linecap="round" d="M168.667,168.199"/>
	<path fill-rule="evenodd" clip-rule="evenodd" fill="none" stroke="#000000" stroke-linecap="round" d="M169.831,141.02"/>
	<path fill-rule="evenodd" clip-rule="evenodd" fill="none" stroke="#000000" stroke-linecap="round" d="M164.615,168.254"/>
	<path fill-rule="evenodd" clip-rule="evenodd" fill="none" stroke="#000000" stroke-width="5.278" stroke-linecap="round" d="
		M196.618,139.942c-1.026-2.076,0.273-4.29,0.148-6.435"/>
	<path fill-rule="evenodd" clip-rule="evenodd" fill="none" stroke="#000000" stroke-width="6.0415" stroke-linecap="round" d="
		M196.203,132.245"/>
	<path fill-rule="evenodd" clip-rule="evenodd" fill="none" stroke="#000000" stroke-width="4.6869" stroke-linecap="round" d="
		M196.203,132.245c-1.742-5.815-1.642-14.817-9.324-16.007c-10.493,0.928-11.713,13.137-20.08,17.053"/>
	
		<line fill-rule="evenodd" clip-rule="evenodd" fill="none" stroke="#000000" stroke-width="7.3711" stroke-linecap="round" x1="166.799" y1="133.292" x2="166.072" y2="142.098"/>
	<path fill-rule="evenodd" clip-rule="evenodd" fill="none" stroke="#000000" stroke-width="5" stroke-linecap="round" d="
		M166.072,142.098l-1.457,26.156c0.459,1.238,0.835,3.127,1.289,4.854c19.874,8.798,31.822-16.312,30.714-33.166"/>
	<path fill-rule="evenodd" clip-rule="evenodd" fill="none" stroke="#000000" stroke-width="5.8511" stroke-linecap="round" d="
		M196.618,139.942c2.93,0.403,5.89,0,8.831,0.147c1.773-2.391,1.252-5.916,0.576-8.606l0.67-5.678
		c5.746-7,4.801-27.488,19.195-21.997"/>
	<path fill-rule="evenodd" clip-rule="evenodd" fill="none" stroke="#000000" stroke-width="1.8974" stroke-linecap="round" d="
		M223.286,141.326c-1.479-0.744-3.888-0.959-6.12-1.502"/>
	<path fill-rule="evenodd" clip-rule="evenodd" fill="none" stroke="#000000" stroke-width="4.7214" stroke-linecap="round" d="
		M17.101,275.838c12.24-32.987,38.152-61.398,44.521-95.928c-0.836-1.222-2.453-1.905-3.554-2.32
		c-19.798-1.101-37.283,28.898-55.47,13.465c4.648-33.965,22.641-64.716,34.814-96.791"/>
	<path fill-rule="evenodd" clip-rule="evenodd" stroke="#000000" stroke-linecap="round" d="M140.468,121.447
		c2.241,0.843,4.896,6.118,0.693,6.958c0.42,0.686-6.277-0.877-3.828-3.132C136.783,123.388,138.04,122.193,140.468,121.447z"/>
</g>
<g>
	<path fill-rule="evenodd" clip-rule="evenodd" fill="none" stroke="#FFFFFF" stroke-width="0.75" stroke-linecap="round" d="
		M163.622,170.463c-1.906-2.959-2.801-4.695-3.161-7.066c-1.615-2.361-5.123,0.258-6.858-1.784
		c-3.258-7.103,3.511-13.727,1.126-20.495"/>
	<path fill-rule="evenodd" clip-rule="evenodd" fill="none" stroke="#FFFFFF" stroke-width="0.75" stroke-linecap="round" d="
		M155.855,143.641l-1.127-2.523L155.855,143.641z"/>
	<path fill-rule="evenodd" clip-rule="evenodd" fill="none" stroke="#FFFFFF" stroke-width="0.75" stroke-linecap="round" d="
		M154.729,141.117c-0.369-0.224-0.742-0.455-1.108-0.684c-24.07-2.756-22.675,83.627-39.09,35.336
		c-13.934,10.789-20.881,30.66-37.716,38.836c-2.359,0.703-4.796-0.982-5.841-3.036c-0.606-21.304,6.546-42.441,16.512-60.954"/>
	<path fill-rule="evenodd" clip-rule="evenodd" fill="none" stroke="#FFFFFF" stroke-width="0.75" stroke-linecap="round" d="
		M154.729,141.117"/>
	<path fill-rule="evenodd" clip-rule="evenodd" fill="none" stroke="#FFFFFF" stroke-width="0.75" stroke-linecap="round" d="
		M162.418,140.699"/>
	<path fill-rule="evenodd" clip-rule="evenodd" fill="none" stroke="#FFFFFF" stroke-width="0.75" stroke-linecap="round" d="
		M166.799,133.292c-6.405-20.397-1.811-42.645-6.538-63.728"/>
	<path fill-rule="evenodd" clip-rule="evenodd" fill="none" stroke="#FFFFFF" stroke-width="0.75" stroke-linecap="round" d="
		M206.695,125.806"/>
	<path fill-rule="evenodd" clip-rule="evenodd" fill="none" stroke="#FFFFFF" stroke-width="0.75" stroke-linecap="round" d="
		M206.695,125.806c-6.617-14.101-8.141-41.903-9.73-64.981c-0.593-8.565-1.018-17.471-0.38-23.444"/>
	<path fill-rule="evenodd" clip-rule="evenodd" fill="none" stroke="#FFFFFF" stroke-width="0.75" stroke-linecap="round" d="
		M225.891,103.809c3.741-33.186,12.341-68.583,1.105-100.634c-14.039,7.13-11.715,27.903-12.95,41.708"/>
	<path fill-rule="evenodd" clip-rule="evenodd" fill="none" stroke="#FFFFFF" stroke-width="0.75" stroke-linecap="round" d="
		M225.891,103.809c0.717,11.395-0.05,22.942,0.258,34.423"/>
	<path fill-rule="evenodd" clip-rule="evenodd" fill="none" stroke="#FFFFFF" stroke-width="0.75" stroke-linecap="round" d="
		M226.148,138.232c3.462,3.113,6.14,7.256,10.48,9.253c1.748-0.091,4.003,0.209,4.912,0.12c13.621-9.5,19.574-27.699,23.796-42.971"
		/>
	<path fill-rule="evenodd" clip-rule="evenodd" fill="none" stroke="#FFFFFF" stroke-width="0.75" stroke-linecap="round" d="
		M265.337,104.634c-2.114-0.658-4.603-0.798-6.178-2.536c-7.999-12.439,12.131-50.074,21.136-25.208"/>
	<path fill-rule="evenodd" clip-rule="evenodd" fill="none" stroke="#FFFFFF" stroke-width="0.75" stroke-linecap="round" d="
		M280.295,76.89c5.271-1.511,6.684-8.945,12.375-9.393c1.679,1.958,2.277,4.093,2.39,4.958c-0.985,3.993-0.341,8.319,1.839,11.75
		c7.064-4.907,10.344-11.049,20.122-10.914c16.464-11.867,28.289-29.115,44.62-41.154"/>
	<path fill-rule="evenodd" clip-rule="evenodd" fill="none" stroke="#FFFFFF" stroke-width="0.75" stroke-linecap="round" d="
		M226.148,138.232c-1.013,1.189-1.937,2.145-2.862,3.094"/>
	<path fill-rule="evenodd" clip-rule="evenodd" fill="none" stroke="#FFFFFF" stroke-width="0.75" stroke-linecap="round" d="
		M223.286,141.326c-0.742,1.968-2.397,5.188-4.942,4.274c-1.64-1.481-2.122-3.774-1.178-5.776"/>
	
		<line fill-rule="evenodd" clip-rule="evenodd" fill="none" stroke="#FFFFFF" stroke-width="0.75" stroke-linecap="round" x1="164.615" y1="168.254" x2="164.615" y2="168.254"/>
	<path fill-rule="evenodd" clip-rule="evenodd" fill="none" stroke="#FFFFFF" stroke-width="0.75" stroke-linecap="round" d="
		M265.337,104.634c6.493-8.363,11.053-17.896,14.958-27.744"/>
	<path fill-rule="evenodd" clip-rule="evenodd" fill="none" stroke="#FFFFFF" stroke-width="0.75" stroke-linecap="round" d="
		M168.667,168.199"/>
	<path fill-rule="evenodd" clip-rule="evenodd" fill="none" stroke="#FFFFFF" stroke-width="0.75" stroke-linecap="round" d="
		M169.831,141.02"/>
	<path fill-rule="evenodd" clip-rule="evenodd" fill="none" stroke="#FFFFFF" stroke-width="0.75" stroke-linecap="round" d="
		M164.615,168.254"/>
	<path fill-rule="evenodd" clip-rule="evenodd" fill="none" stroke="#FFFFFF" stroke-width="0.75" stroke-linecap="round" d="
		M196.618,139.942c-1.026-2.076,0.273-4.29,0.148-6.435"/>
	<path fill-rule="evenodd" clip-rule="evenodd" fill="none" stroke="#FFFFFF" stroke-width="0.75" stroke-linecap="round" d="
		M196.203,132.245"/>
	<path fill-rule="evenodd" clip-rule="evenodd" fill="none" stroke="#FFFFFF" stroke-width="0.75" stroke-linecap="round" d="
		M196.203,132.245c-1.742-5.815-1.642-14.817-9.324-16.007c-10.493,0.928-11.713,13.137-20.08,17.053"/>
	
		<line fill-rule="evenodd" clip-rule="evenodd" fill="none" stroke="#FFFFFF" stroke-width="0.75" stroke-linecap="round" x1="166.799" y1="133.292" x2="166.072" y2="142.098"/>
	<path fill-rule="evenodd" clip-rule="evenodd" fill="none" stroke="#FFFFFF" stroke-width="0.75" stroke-linecap="round" d="
		M166.072,142.098l-1.457,26.156c0.459,1.238,0.835,3.127,1.289,4.854c19.874,8.798,31.822-16.312,30.714-33.166"/>
	<path fill-rule="evenodd" clip-rule="evenodd" fill="none" stroke="#FFFFFF" stroke-width="0.75" stroke-linecap="round" d="
		M196.618,139.942c2.93,0.403,5.89,0,8.831,0.147c1.773-2.391,1.252-5.916,0.576-8.606l0.67-5.678
		c5.746-7,4.801-27.488,19.195-21.997"/>
	<path fill-rule="evenodd" clip-rule="evenodd" fill="none" stroke="#FFFFFF" stroke-width="0.75" stroke-linecap="round" d="
		M223.286,141.326c-1.479-0.744-3.888-0.959-6.12-1.502"/>
	<path fill-rule="evenodd" clip-rule="evenodd" fill="none" stroke="#FFFFFF" stroke-width="0.75" stroke-linecap="round" d="
		M17.101,275.838c12.24-32.987,38.152-61.398,44.521-95.928c-0.836-1.222-2.453-1.905-3.554-2.32
		c-19.798-1.101-37.283,28.898-55.47,13.465c4.648-33.965,22.641-64.716,34.814-96.791"/>
	<path fill-rule="evenodd" clip-rule="evenodd" stroke="#FFFFFF" stroke-width="0.75" stroke-linecap="round" d="M140.468,121.447
		c2.241,0.843,4.896,6.118,0.693,6.958c0.42,0.686-6.277-0.877-3.828-3.132C136.783,123.388,138.04,122.193,140.468,121.447z"/>
</g>
</svg>
